# xmcd
#
# Track frame offsets:
#	150
#	27867
#	49545
#	74497
#	99775
#	126175
#	147952
#	168790
#	193782
#	217370
#	240442
#	265245
#
# Disc length: 3893 seconds
#
# Revision: 1
# Processed by: cddbd v1.5.1PL0 Copyright (c) Steve Scherf et al.
# Submitted via: CDex 1.50Beta5
#
DISCID=aa0f330c
DTITLE=国武万里 - Pureness
DYEAR=1995
DGENRE=Pop
TTITLE0=駅へ…
TTITLE1=ENDLESS
TTITLE2=真昼の月
TTITLE3=モーニングコーヒーを2杯分
TTITLE4=追伸が終われない
TTITLE5=予感で愛した
TTITLE6=天使たちがすべて善人じゃない
TTITLE7=雪は知っている
TTITLE8=思い出の数
TTITLE9=PENTHOUSEの窓辺から
TTITLE10=明日をみつめて
TTITLE11=両手で持てないもの
EXTD=
EXTT0=
EXTT1=
EXTT2=
EXTT3=
EXTT4=
EXTT5=
EXTT6=
EXTT7=
EXTT8=
EXTT9=
EXTT10=
EXTT11=
PLAYORDER=
